<svg id="visual" viewBox="0 0 900 600" width="900" height="600" xmlns="http://www.w3.org/2000/svg" xmlns:xlink="http://www.w3.org/1999/xlink" version="1.1"><rect x="0" y="0" width="900" height="600" fill="#FF0066"></rect><g transform="translate(453.0995575305645 311.073164416258)"><path d="M132.7 -230.3C170.3 -208 198.2 -169.3 221.4 -128.1C244.7 -87 263.3 -43.5 252.7 -6.2C242 31.2 202 62.3 179.2 104.3C156.5 146.3 151 199.2 124 217.9C97 236.7 48.5 221.3 -0.7 222.6C-50 223.9 -100 241.9 -127.1 223.2C-154.1 204.5 -158.3 149.1 -179.1 105.8C-199.9 62.5 -237.5 31.3 -253.3 -9.1C-269.1 -49.5 -263.1 -99 -236.6 -132.3C-210 -165.7 -162.7 -182.9 -119.9 -202.1C-77 -221.4 -38.5 -242.7 4.5 -250.5C47.5 -258.3 95 -252.5 132.7 -230.3" fill="#BB004B"></path></g></svg>