<svg id="visual" viewBox="0 0 900 600" width="900" height="600" xmlns="http://www.w3.org/2000/svg" xmlns:xlink="http://www.w3.org/1999/xlink" version="1.1"><rect x="0" y="0" width="900" height="600" fill="#FF0066"></rect><g transform="translate(460.72008082025127 304.0527646051153)"><path d="M114.6 -211.6C146.5 -180 168.9 -145.3 192.1 -109.5C215.3 -73.7 239.1 -36.8 234.3 -2.8C229.5 31.3 195.9 62.5 174.3 101C152.8 139.6 143.1 185.4 116.1 218.3C89 251.2 44.5 271.1 5.3 262C-34 252.9 -68 214.8 -110.1 190.6C-152.3 166.4 -202.6 156.2 -229.9 126.8C-257.3 97.3 -261.6 48.7 -251.1 6.1C-240.6 -36.5 -215.1 -73 -191.9 -109.5C-168.6 -146 -147.6 -182.6 -115.9 -214.3C-84.3 -246.1 -42.2 -273 -0.4 -272.3C41.3 -271.6 82.7 -243.2 114.6 -211.6" fill="#BB004B"></path></g></svg>