<svg id="visual" viewBox="0 0 900 600" width="900" height="600" xmlns="http://www.w3.org/2000/svg" xmlns:xlink="http://www.w3.org/1999/xlink" version="1.1"><rect x="0" y="0" width="900" height="600" fill="#A78364"></rect><g transform="translate(442.8074174888925 302.77967430960985)"><path d="M94.8 -160.9C121.7 -148.8 141.4 -120.9 161.7 -91.4C182.1 -62 203 -31 198.1 -2.8C193.2 25.3 162.4 50.7 142.8 81.3C123.1 111.9 114.5 147.7 92.6 158.9C70.7 170.1 35.3 156.5 1.5 153.9C-32.3 151.3 -64.7 159.7 -97.1 154.6C-129.6 149.5 -162.2 131 -176.1 103C-189.9 75 -185 37.5 -172.8 7C-160.6 -23.4 -141.2 -46.9 -123.4 -68C-105.5 -89 -89.3 -107.7 -69 -123.7C-48.7 -139.6 -24.3 -152.8 4.8 -161.2C34 -169.6 68 -173.1 94.8 -160.9" fill="#095548"></path></g></svg>