<svg id="visual" viewBox="0 0 900 600" width="900" height="600" xmlns="http://www.w3.org/2000/svg" xmlns:xlink="http://www.w3.org/1999/xlink" version="1.1"><rect x="0" y="0" width="900" height="600" fill="#A78364"></rect><g transform="translate(444.35784969878995 300.8963475239113)"><path d="M84.6 -151.4C105.5 -134.4 115.5 -103.5 137.1 -75.9C158.7 -48.3 191.9 -24.2 198.6 3.9C205.4 32 185.9 64 166.2 94.9C146.5 125.8 126.8 155.6 99 163.7C71.3 171.9 35.7 158.4 6.1 147.9C-23.4 137.3 -46.9 129.5 -74.6 121.4C-102.3 113.2 -134.3 104.6 -155.6 84.3C-176.9 64 -187.4 32 -188.6 -0.7C-189.7 -33.3 -181.5 -66.7 -161 -88.3C-140.5 -110 -107.7 -119.9 -78.9 -132.3C-50 -144.6 -25 -159.3 3.4 -165.2C31.8 -171.1 63.7 -168.3 84.6 -151.4" fill="#095548"></path></g></svg>